HIERARCHY
ROOT Hips
{
	OFFSET -0.001795 -0.223333 0.028219
	CHANNELS 6 Xposition Yposition Zposition Zrotation Yrotation Xrotation 
	JOINT LeftUpLeg
	{
		OFFSET 0.069520 -0.091406 -0.006815
		CHANNELS 3 Zrotation Yrotation Xrotation
		JOINT LeftLeg
		{
			OFFSET 0.034277 -0.375199 -0.004496
			CHANNELS 3 Zrotation Yrotation Xrotation
			JOINT LeftFoot
			{
				OFFSET -0.013596 -0.397961 -0.043693
				CHANNELS 3 Zrotation Yrotation Xrotation
				JOINT LeftToe
				{
					OFFSET 0.026358 -0.055791 0.119288
					CHANNELS 3 Zrotation Yrotation Xrotation
					End Site
					{
						OFFSET 0.000000 0.000000 0.000000
					}
				}
			}
		}
	}
	JOINT RightUpLeg
	{
		OFFSET -0.067670 -0.090522 -0.004320
		CHANNELS 3 Zrotation Yrotation Xrotation
		JOINT RightLeg
		{
			OFFSET -0.038290 -0.382569 -0.008850
			CHANNELS 3 Zrotation Yrotation Xrotation
			JOINT RightFoot
			{
				OFFSET 0.015774 -0.398415 -0.042312
				CHANNELS 3 Zrotation Yrotation Xrotation
				JOINT RightToe
				{
					OFFSET -0.025372 -0.048144 0.123348
					CHANNELS 3 Zrotation Yrotation Xrotation
					End Site
					{
						OFFSET 0.000000 0.000000 0.000000
					}
				}
			}
		}
	}
	JOINT Spine
	{
		OFFSET -0.002533 0.108963 -0.026696
		CHANNELS 3 Zrotation Yrotation Xrotation
		JOINT Spine1
		{
			OFFSET 0.005487 0.135180 0.001092
			CHANNELS 3 Zrotation Yrotation Xrotation
			JOINT Spine2
			{
				OFFSET 0.001457 0.052922 0.025425
				CHANNELS 3 Zrotation Yrotation Xrotation
				JOINT Neck
				{
					OFFSET -0.002778 0.213870 -0.042857
					CHANNELS 3 Zrotation Yrotation Xrotation
					JOINT Head
					{
						OFFSET 0.005152 0.064970 0.051349
						CHANNELS 3 Zrotation Yrotation Xrotation
						End Site
						{
							OFFSET 0.000000 0.000000 0.000000
						}
					}
				}
				JOINT LeftShoulder
				{
					OFFSET 0.078845 0.121749 -0.034090
					CHANNELS 3 Zrotation Yrotation Xrotation
					JOINT LeftArm
					{
						OFFSET 0.090977 0.030469 -0.008868
						CHANNELS 3 Zrotation Yrotation Xrotation
						JOINT LeftForeArm
						{
							OFFSET 0.259612 -0.012772 -0.027456
							CHANNELS 3 Zrotation Yrotation Xrotation
							JOINT LeftHand
							{
								OFFSET 0.249234 0.008986 -0.001171
								CHANNELS 3 Zrotation Yrotation Xrotation
								End Site
								{
									OFFSET 0.000000 0.000000 0.000000
								}
							}
						}
					}
				}
				JOINT RightShoulder
				{
					OFFSET -0.081759 0.118833 -0.038615
					CHANNELS 3 Zrotation Yrotation Xrotation
					JOINT RightArm
					{
						OFFSET -0.096012 0.032551 -0.009143
						CHANNELS 3 Zrotation Yrotation Xrotation
						JOINT RightForeArm
						{
							OFFSET -0.253742 -0.013329 -0.021401
							CHANNELS 3 Zrotation Yrotation Xrotation
							JOINT RightHand
							{
								OFFSET -0.255298 0.007772 -0.005559
								CHANNELS 3 Zrotation Yrotation Xrotation
								End Site
								{
									OFFSET 0.000000 0.000000 0.000000
								}
							}
						}
					}
				}
			}
		}
	}
}
MOTION
Frames: 17
Frame Time: 0.050000
-0.010003 0.956283 -0.099519 -2.485089 14.183233 11.801817 9.356486 -0.956074 -13.788319 1.557131 0.223043 -9.367993 -0.228209 10.462039 25.968574 0.000000 0.000000 0.000000 1.505116 1.737448 -19.126298 0.040659 0.154469 8.501117 -8.876705 -19.815966 13.829741 0.000000 0.000000 0.000000 -7.443168 0.376959 8.916195 -5.482085 2.399057 -1.448294 -4.729594 13.376571 3.970799 12.766797 -9.101715 -3.525062 0.000000 0.000000 0.000000 24.302825 -26.229674 8.730887 10.310358 -36.239643 -7.580752 28.558541 -6.216998 -2.787702 0.000000 0.000000 0.000000 -36.302342 42.512795 2.856019 -25.692435 36.019655 -5.206203 -17.212045 15.548917 -1.016110 0.000000 0.000000 0.000000 
-0.011050 0.956371 -0.098447 -2.469468 15.833991 12.128956 9.313183 -1.039549 -14.431457 1.743248 0.216709 -9.524803 -1.090710 9.704394 25.967256 0.000000 0.000000 0.000000 1.644815 1.721252 -19.305956 0.029738 0.133594 8.475371 -9.659992 -20.960497 14.397794 0.000000 0.000000 0.000000 -8.037137 0.422149 9.539721 -5.494996 2.408002 -2.355447 -3.701289 13.258892 4.632724 12.540230 -8.174861 -5.286968 0.000000 0.000000 0.000000 26.222900 -24.552694 8.770967 13.928921 -36.669926 -9.077842 26.505255 -3.806485 -2.019190 0.000000 0.000000 0.000000 -39.631648 42.214265 1.532706 -28.740017 35.926246 -5.559498 -17.712421 11.162991 -0.584148 0.000000 0.000000 0.000000 
-0.011961 0.957333 -0.097477 -2.678086 16.788880 12.269023 9.331431 -1.081934 -14.657473 2.205762 0.219396 -9.840088 -1.654980 9.267981 26.217724 0.000000 0.000000 0.000000 1.952623 1.749014 -19.558583 0.390470 0.044600 8.479019 -10.643669 -22.413332 15.423232 0.000000 0.000000 0.000000 -8.474479 0.453487 9.854047 -5.680350 2.492259 -3.202682 -2.997632 13.569332 5.275177 12.645643 -8.201610 -5.411040 0.000000 0.000000 0.000000 28.512268 -23.280044 8.883952 17.682805 -37.106165 -10.753645 24.837075 -1.167162 -1.346502 0.000000 0.000000 0.000000 -41.245980 41.890920 0.833484 -31.632135 35.504954 -5.802603 -16.570697 7.031224 -0.115977 0.000000 0.000000 0.000000 
-0.012778 0.957535 -0.096646 -2.999984 18.013659 12.618490 9.815605 -1.152696 -15.478826 2.113803 0.209330 -9.734258 -2.202821 8.805305 26.221051 0.000000 0.000000 0.000000 2.308196 1.790820 -20.076281 0.449377 0.013873 8.601702 -11.218791 -23.094362 16.287917 0.000000 0.000000 0.000000 -8.873557 0.483325 10.107307 -5.474964 2.409645 -3.483535 -2.249988 13.474142 5.506894 12.412868 -7.822179 -5.834821 0.000000 0.000000 0.000000 30.795475 -21.537585 9.010019 20.774478 -37.548443 -12.239632 23.466426 1.456403 -0.792982 0.000000 0.000000 0.000000 -43.528004 40.984131 -0.066254 -33.767086 35.723460 -6.017310 -15.381334 3.653485 0.212002 0.000000 0.000000 0.000000 
-0.013427 0.958245 -0.095868 -3.586670 18.736388 12.634898 10.330594 -1.186013 -15.928346 2.408189 0.203072 -9.563115 -2.532750 8.542833 26.260745 0.000000 0.000000 0.000000 3.136517 1.883418 -20.016053 0.323273 0.032726 8.163348 -11.722783 -23.714799 17.032187 0.000000 0.000000 0.000000 -8.943032 0.477003 10.484845 -5.592242 2.469036 -4.313894 -1.798193 13.572661 6.024660 12.482176 -7.836791 -5.923411 0.000000 0.000000 0.000000 32.042075 -21.043187 9.099152 23.967821 -37.508474 -13.579970 22.676355 4.121218 -0.309343 0.000000 0.000000 0.000000 -43.790352 40.541378 -0.285414 -35.491775 35.528711 -6.125113 -13.765003 1.862886 0.326972 0.000000 0.000000 0.000000 
-0.013612 0.958180 -0.095154 -4.131175 19.418955 12.702147 10.783241 -1.225336 -16.469848 2.693000 0.195016 -9.307746 -2.791597 8.290177 26.109793 0.000000 0.000000 0.000000 3.756012 1.954578 -20.052807 0.332702 0.021638 8.213443 -11.755201 -23.796963 16.669596 0.000000 0.000000 0.000000 -8.863985 0.458581 10.611795 -5.598566 2.480991 -4.911321 -1.108651 13.786656 6.159783 13.490552 -8.047329 -7.311927 0.000000 0.000000 0.000000 32.417799 -20.859759 9.227469 26.118561 -38.024432 -14.839958 21.887095 6.021452 0.011811 0.000000 0.000000 0.000000 -43.775165 40.681964 -0.296307 -35.743777 35.966837 -6.197826 -13.433648 1.211922 0.360771 0.000000 0.000000 0.000000 
-0.013237 0.957766 -0.094425 -4.795594 19.548882 12.681882 11.336311 -1.221197 -16.583834 2.987255 0.198572 -9.409889 -2.756168 8.294910 25.950739 0.000000 0.000000 0.000000 4.267787 2.036250 -20.265856 0.239247 0.040982 8.157225 -11.494865 -23.201884 17.198507 0.000000 0.000000 0.000000 -8.690985 0.439759 10.460436 -5.502244 2.452659 -5.433183 -0.622682 14.078573 6.589294 13.932053 -8.259387 -7.627722 0.000000 0.000000 0.000000 31.918583 -20.925354 9.229574 27.634972 -38.325468 -15.646002 21.243408 7.373204 0.225685 0.000000 0.000000 0.000000 -42.902407 40.937239 -0.043882 -36.062538 36.635474 -6.452384 -13.250377 1.238462 0.339474 0.000000 0.000000 0.000000 
-0.012119 0.957321 -0.093835 -5.094685 19.883609 12.606796 11.693705 -1.234730 -16.842280 2.823278 0.187740 -9.070284 -2.810058 8.168614 25.624920 0.000000 0.000000 0.000000 4.482542 2.038230 -19.938333 0.164098 0.053102 8.039278 -11.113099 -22.677044 16.489207 0.000000 0.000000 0.000000 -8.479017 0.411518 10.464099 -5.330675 2.401883 -6.140460 -0.227694 14.388589 6.756413 14.913596 -8.751705 -8.267430 0.000000 0.000000 0.000000 31.391295 -21.056164 9.294567 28.012419 -39.109293 -16.304330 21.728584 7.772872 0.274462 0.000000 0.000000 0.000000 -40.996436 41.393513 0.665885 -35.690525 38.017664 -6.860024 -14.242289 1.001408 0.369288 0.000000 0.000000 0.000000 
-0.010398 0.957444 -0.093471 -5.387531 19.970963 12.530280 11.892400 -1.226866 -16.671482 2.838597 0.194223 -9.341273 -2.819538 8.147260 25.573948 0.000000 0.000000 0.000000 4.427225 2.000431 -19.489020 0.187541 0.049106 7.559455 -10.401723 -21.475940 16.198138 0.000000 0.000000 0.000000 -7.847979 0.343725 10.329196 -5.171908 2.343947 -6.179550 -0.090179 14.556612 6.346567 14.942770 -8.653748 -8.488394 0.000000 0.000000 0.000000 29.674750 -21.269729 9.270153 28.042614 -40.107767 -16.776403 22.646116 7.301964 0.232153 0.000000 0.000000 0.000000 -38.595533 42.299682 1.728978 -35.648170 39.407856 -7.474444 -16.037118 1.565263 0.338840 0.000000 0.000000 0.000000 
-0.008343 0.958218 -0.093596 -5.487653 19.972389 12.299021 11.785096 -1.221676 -16.591610 2.929349 0.185782 -9.049240 -2.846315 8.102312 25.488436 0.000000 0.000000 0.000000 4.103117 1.902521 -18.621860 0.468862 -0.007468 7.027617 -9.616579 -20.253653 15.297225 0.000000 0.000000 0.000000 -7.474640 0.298299 10.275526 -4.599740 2.144042 -6.421437 -0.054201 14.963794 5.664564 16.378875 -9.338016 -9.444596 0.000000 0.000000 0.000000 28.813309 -21.913194 9.346007 25.792708 -40.942791 -16.274297 24.087783 5.587285 -0.097254 0.000000 0.000000 0.000000 -35.247859 43.195748 3.272313 -34.652732 41.202273 -8.007431 -18.234908 2.293641 0.271000 0.000000 0.000000 0.000000 
-0.006342 0.959038 -0.094313 -5.587769 19.607322 12.316918 11.824550 -1.195822 -16.319054 2.820335 0.197274 -9.421696 -2.686011 8.291368 25.690973 0.000000 0.000000 0.000000 3.756116 1.856793 -18.446023 0.780504 -0.063343 6.569050 -9.185007 -19.466967 15.570547 0.000000 0.000000 0.000000 -6.940824 0.258561 9.620710 -4.075623 1.940130 -6.018494 -0.547049 14.923164 4.867287 16.879229 -9.551310 -9.817323 0.000000 0.000000 0.000000 28.047532 -22.439890 9.317172 23.579678 -41.388586 -15.433246 25.285240 3.310219 -0.547150 0.000000 0.000000 0.000000 -32.346563 43.995306 4.725137 -33.061388 42.404136 -8.251825 -21.135886 3.874141 0.070126 0.000000 0.000000 0.000000 
-0.004548 0.959551 -0.095440 -5.320885 19.194220 12.434279 11.845679 -1.170811 -16.062955 2.086785 0.203426 -9.789197 -2.483028 8.523391 25.901372 0.000000 0.000000 0.000000 3.368572 1.792034 -18.089967 0.720038 -0.045865 6.106574 -8.769728 -18.852886 15.015851 0.000000 0.000000 0.000000 -6.441124 0.219465 9.220115 -3.467335 1.719639 -6.236483 -1.131168 14.605924 4.328349 18.160642 -10.169022 -10.694898 0.000000 0.000000 0.000000 28.365418 -23.268686 9.261773 20.222292 -41.301485 -13.865834 26.198997 0.415003 -1.202781 0.000000 0.000000 0.000000 -30.144301 44.427991 5.815973 -30.383637 43.356646 -8.016293 -23.648597 6.217834 -0.314343 0.000000 0.000000 0.000000 
-0.002768 0.959364 -0.096522 -5.233309 17.791698 11.981084 11.629459 -1.072730 -14.930586 2.055476 0.220016 -10.193688 -1.825939 9.078478 25.882317 0.000000 0.000000 0.000000 3.046852 1.747781 -17.513802 0.768131 -0.040668 5.962423 -8.027531 -17.764046 14.387984 0.000000 0.000000 0.000000 -6.110870 0.204328 8.556207 -3.225876 1.604916 -5.594753 -0.995152 14.167792 4.232871 17.612044 -10.033492 -10.189708 0.000000 0.000000 0.000000 28.150660 -23.311020 9.005057 16.753464 -40.585420 -11.878659 26.790696 -2.842128 -1.932676 0.000000 0.000000 0.000000 -29.451621 44.179930 5.944185 -28.255367 44.829197 -7.975571 -25.677689 8.627909 -0.811675 0.000000 0.000000 0.000000 
-0.000733 0.959281 -0.097479 -4.742895 16.534918 11.644794 10.941019 -1.001616 -13.978725 2.041253 0.232034 -10.386291 -1.287193 9.534631 25.875743 0.000000 0.000000 0.000000 2.305889 1.659571 -17.149406 0.452351 0.032420 6.335019 -6.935082 -15.969084 13.549478 0.000000 0.000000 0.000000 -5.601127 0.159397 8.521945 -2.714319 1.418745 -6.015744 -1.540522 13.587055 3.650417 17.748430 -10.010889 -10.565354 0.000000 0.000000 0.000000 28.835098 -24.237667 8.799767 13.364322 -39.317462 -9.904753 25.601225 -5.581998 -2.358326 0.000000 0.000000 0.000000 -27.518115 44.517119 6.860111 -25.304689 44.680507 -7.339182 -26.407356 11.429244 -1.384227 0.000000 0.000000 0.000000 
0.002228 0.958836 -0.098220 -4.716487 14.369836 11.035933 10.503250 -0.897217 -13.070965 2.390329 0.229792 -9.717587 -0.167990 10.442455 25.500866 0.000000 0.000000 0.000000 1.843635 1.643053 -17.037465 0.152359 0.116434 6.946814 -5.451561 -13.474243 13.325789 0.000000 0.000000 0.000000 -4.916042 0.115347 7.739135 -2.077819 1.124580 -5.103856 -1.755516 12.779534 3.000456 16.761781 -9.173015 -10.946861 0.000000 0.000000 0.000000 29.465618 -23.957395 8.412549 11.246196 -38.726337 -8.621779 24.759688 -7.344873 -2.525300 0.000000 0.000000 0.000000 -27.483215 43.876679 6.657265 -22.308834 45.875058 -6.888615 -27.649679 13.144141 -1.831455 0.000000 0.000000 0.000000 
0.006341 0.958675 -0.099016 -4.367573 12.069611 10.136391 9.715345 -0.783222 -11.541295 2.535453 0.228286 -9.418372 0.963048 11.395842 25.290921 0.000000 0.000000 0.000000 1.455235 1.578445 -16.169792 -0.582215 0.284420 7.319991 -4.185682 -11.350706 12.268884 0.000000 0.000000 0.000000 -4.497212 0.082218 7.540762 -1.218659 0.786123 -5.564360 -1.702496 11.536848 2.945499 15.968980 -9.173379 -9.798996 0.000000 0.000000 0.000000 30.864451 -26.172346 7.819369 8.539126 -36.258330 -6.658263 23.906885 -9.195508 -2.654018 0.000000 0.000000 0.000000 -26.283791 43.312418 6.902272 -19.254741 45.720914 -6.270320 -28.023444 15.272491 -2.323858 0.000000 0.000000 0.000000 
0.011757 0.958813 -0.099593 -4.421409 9.731369 9.618853 9.202415 -0.692045 -10.405484 2.862186 0.226868 -9.263617 2.191487 12.487181 25.242992 0.000000 0.000000 0.000000 1.268261 1.568474 -15.789680 -0.972473 0.387351 7.607837 -3.043676 -9.395703 11.567388 0.000000 0.000000 0.000000 -4.015056 0.067689 6.359395 0.159961 0.151947 -4.469501 -1.452397 9.774433 2.166594 13.891826 -7.764134 -9.823211 0.000000 0.000000 0.000000 31.806150 -26.726590 7.147870 7.803851 -36.886772 -6.156479 24.304069 -9.749472 -2.598297 0.000000 0.000000 0.000000 -26.213437 42.304773 6.679470 -14.907167 46.218841 -5.336016 -29.083173 18.566926 -3.162763 0.000000 0.000000 0.000000 
